<?xml version="1.0" encoding="UTF-8"?>
<svg xmlns="http://www.w3.org/2000/svg" xmlns:xlink="http://www.w3.org/1999/xlink" width="202px" height="74px" viewBox="0 0 201 74" version="1.1">
<g id="surface1">
<path style=" stroke:none;fill-rule:nonzero;fill:rgb(98.823529%,98.823529%,99.215686%);fill-opacity:1;" d="M 0 0 C 66.328125 0 132.660156 0 201 0 C 201 24.421875 201 48.839844 201 74 C 134.671875 74 68.339844 74 0 74 C 0 49.578125 0 25.160156 0 0 Z M 0 0 "/>
<path style=" stroke:none;fill-rule:nonzero;fill:rgb(3.137255%,3.529412%,3.529412%);fill-opacity:1;" d="M 130.828125 27.453125 C 139.070312 27.453125 147.3125 27.453125 155.804688 27.453125 C 155.804688 30.488281 155.757812 31.59375 154.675781 34.191406 C 154.441406 34.765625 154.203125 35.335938 153.960938 35.925781 C 153.585938 36.808594 153.585938 36.808594 153.203125 37.707031 C 152.957031 38.304688 152.710938 38.898438 152.460938 39.511719 C 151.507812 41.792969 150.632812 43.886719 149.261719 45.953125 C 147.414062 46.1875 146.226562 46.335938 144.679688 45.21875 C 143.910156 44.160156 143.910156 44.160156 143.867188 42.8125 C 143.941406 42.332031 144.019531 41.855469 144.097656 41.363281 C 144.167969 40.882812 144.238281 40.398438 144.3125 39.902344 C 144.375 39.535156 144.441406 39.167969 144.507812 38.789062 C 143.984375 39.085938 143.464844 39.382812 142.929688 39.6875 C 126.632812 48.800781 126.632812 48.800781 117.152344 47.742188 C 116.855469 48.332031 116.855469 48.332031 116.554688 48.933594 C 115.066406 49.183594 115.066406 49.183594 113.25 49.308594 C 112.648438 49.351562 112.042969 49.398438 111.425781 49.445312 C 110.960938 49.472656 110.496094 49.503906 110.015625 49.53125 C 110.015625 48.746094 110.015625 47.957031 110.015625 47.144531 C 108.835938 47.144531 107.660156 47.144531 106.445312 47.144531 C 106.445312 47.933594 106.445312 48.71875 106.445312 49.53125 C 104.679688 49.53125 102.914062 49.53125 101.09375 49.53125 C 101.09375 48.746094 101.09375 47.957031 101.09375 47.144531 C 99.917969 47.144531 98.738281 47.144531 97.527344 47.144531 C 97.527344 47.539062 97.527344 47.933594 97.527344 48.339844 C 96.347656 48.339844 95.171875 48.339844 93.957031 48.339844 C 93.957031 47.945312 93.957031 47.550781 93.957031 47.144531 C 93.5625 47.15625 93.164062 47.167969 92.753906 47.183594 C 82.3125 46.957031 73.507812 40.105469 66.007812 33.417969 C 66.207031 32.632812 66.402344 31.84375 66.605469 31.03125 C 69.304688 31.382812 71.375 32.53125 73.703125 33.867188 C 77.953125 36.226562 82.207031 37.851562 86.824219 39.386719 C 87.667969 39.71875 88.507812 40.054688 89.351562 40.394531 C 94.421875 42.175781 99.351562 42.585938 104.699219 42.558594 C 105.351562 42.554688 106 42.550781 106.671875 42.550781 C 112.117188 42.472656 117.222656 41.886719 122.503906 40.582031 C 123.105469 40.433594 123.707031 40.289062 124.328125 40.140625 C 130.085938 38.480469 135.207031 35.238281 140.34375 32.226562 C 138.660156 31.65625 136.980469 31.09375 135.277344 30.585938 C 134.601562 30.382812 134.601562 30.382812 133.914062 30.175781 C 133.457031 30.039062 132.996094 29.90625 132.527344 29.765625 C 132.164062 29.59375 131.796875 29.421875 131.421875 29.242188 C 131.128906 28.355469 131.128906 28.355469 130.828125 27.453125 Z M 130.828125 27.453125 "/>
<path style=" stroke:none;fill-rule:nonzero;fill:rgb(3.529412%,3.529412%,3.529412%);fill-opacity:1;" d="M 83.105469 12.941406 C 84.207031 12.945312 84.207031 12.945312 85.328125 12.949219 C 90.609375 13.011719 95.402344 13.476562 100.5 14.917969 C 101.261719 15.09375 101.261719 15.09375 102.039062 15.269531 C 109.316406 17.089844 115.703125 21.421875 121.3125 26.257812 C 122.101562 26.859375 122.894531 27.460938 123.691406 28.046875 C 123.496094 29.03125 123.300781 30.019531 123.097656 31.03125 C 120.605469 30.476562 118.476562 29.363281 116.222656 28.199219 C 115.359375 27.761719 114.496094 27.328125 113.632812 26.890625 C 112.246094 26.191406 110.859375 25.484375 109.480469 24.765625 C 97.554688 18.875 81.128906 17.511719 68.496094 21.597656 C 59.480469 24.617188 59.480469 24.617188 51.738281 29.839844 C 52.375 29.992188 53.011719 30.140625 53.667969 30.296875 C 54.496094 30.503906 55.328125 30.710938 56.160156 30.921875 C 56.578125 31.019531 57 31.117188 57.433594 31.21875 C 58.523438 31.496094 59.59375 31.855469 60.65625 32.226562 C 60.851562 32.816406 61.050781 33.40625 61.25 34.015625 C 53.207031 34.015625 45.160156 34.015625 36.871094 34.015625 C 37.539062 29.3125 37.539062 29.3125 38.519531 26.882812 C 38.730469 26.367188 38.9375 25.847656 39.148438 25.316406 C 39.367188 24.789062 39.582031 24.265625 39.804688 23.722656 C 40.019531 23.1875 40.234375 22.652344 40.457031 22.097656 C 41.324219 19.949219 42.125 18.050781 43.410156 16.113281 C 47.425781 16.558594 47.425781 16.558594 48.761719 17.902344 C 48.835938 19.695312 48.835938 19.695312 48.761719 21.484375 C 48.761719 21.878906 48.761719 22.273438 48.761719 22.675781 C 49.382812 22.324219 50.003906 21.972656 50.640625 21.609375 C 61.042969 15.804688 71.136719 12.886719 83.105469 12.941406 Z M 83.105469 12.941406 "/>
<path style=" stroke:none;fill-rule:nonzero;fill:rgb(98.039216%,98.039216%,98.039216%);fill-opacity:1;" d="M 13.773438 13.667969 C 15.921875 13.6875 18.070312 13.707031 20.21875 13.726562 C 20.414062 16.484375 20.613281 19.238281 20.8125 22.082031 C 24.933594 22.375 24.933594 22.375 29.140625 22.675781 C 29.15625 25.050781 29.167969 27.425781 29.175781 29.800781 C 29.179688 30.480469 29.1875 31.15625 29.191406 31.855469 C 29.195312 32.824219 29.195312 32.824219 29.195312 33.808594 C 29.203125 34.703125 29.203125 34.703125 29.207031 35.617188 C 29.140625 37 29.140625 37 28.542969 37.597656 C 27.320312 37.65625 26.089844 37.675781 24.863281 37.675781 C 24.117188 37.675781 23.371094 37.675781 22.601562 37.679688 C 22.210938 37.675781 21.820312 37.675781 21.417969 37.675781 C 20.222656 37.671875 19.03125 37.675781 17.835938 37.679688 C 17.089844 37.675781 16.34375 37.675781 15.574219 37.675781 C 14.882812 37.675781 14.191406 37.675781 13.480469 37.675781 C 11.894531 37.597656 11.894531 37.597656 11.296875 37 C 11.238281 35.328125 11.214844 33.671875 11.21875 32.003906 C 11.21875 31.5 11.21875 31 11.21875 30.484375 C 11.21875 29.421875 11.21875 28.359375 11.222656 27.300781 C 11.222656 25.667969 11.222656 24.039062 11.21875 22.40625 C 11.21875 21.378906 11.21875 20.347656 11.21875 19.320312 C 11.21875 18.828125 11.21875 18.339844 11.214844 17.832031 C 11.234375 13.746094 11.234375 13.746094 13.773438 13.667969 Z M 13.773438 13.667969 "/>
<path style=" stroke:none;fill-rule:nonzero;fill:rgb(5.882353%,5.882353%,5.882353%);fill-opacity:1;" d="M 16.835938 10.292969 C 17.40625 10.296875 17.972656 10.296875 18.558594 10.300781 C 20.949219 10.382812 22.683594 10.445312 24.773438 11.667969 C 25.757812 12.867188 25.757812 12.867188 26.464844 14.160156 C 27.441406 15.648438 28.335938 16.238281 29.804688 17.207031 C 31.511719 18.664062 32.054688 19.433594 32.546875 21.660156 C 32.664062 23.613281 32.699219 25.535156 32.632812 27.492188 C 32.59375 28.722656 32.597656 29.945312 32.605469 31.175781 C 32.515625 37.042969 32.515625 37.042969 30.851562 39.316406 C 28.757812 40.863281 27.628906 40.964844 25.050781 40.976562 C 24.269531 40.980469 23.488281 40.984375 22.679688 40.988281 C 22.277344 40.980469 21.871094 40.976562 21.457031 40.96875 C 20.222656 40.953125 18.992188 40.96875 17.757812 40.988281 C 16.582031 40.984375 16.582031 40.984375 15.386719 40.976562 C 14.316406 40.972656 14.316406 40.972656 13.226562 40.964844 C 10.65625 40.453125 9.820312 39.757812 8.324219 37.597656 C 7.914062 35.738281 7.921875 33.9375 7.953125 32.035156 C 7.949219 31.503906 7.949219 30.96875 7.945312 30.421875 C 7.949219 29.296875 7.957031 28.171875 7.96875 27.050781 C 7.992188 25.328125 7.984375 23.609375 7.972656 21.890625 C 7.976562 20.796875 7.980469 19.703125 7.988281 18.609375 C 7.984375 18.097656 7.984375 17.582031 7.980469 17.054688 C 8.023438 14.789062 8.058594 13.515625 9.359375 11.617188 C 11.722656 10.078125 14.089844 10.285156 16.835938 10.292969 Z M 11.296875 14.324219 C 11.238281 15.992188 11.214844 17.648438 11.21875 19.320312 C 11.21875 19.820312 11.21875 20.324219 11.21875 20.839844 C 11.21875 21.902344 11.21875 22.960938 11.222656 24.023438 C 11.222656 25.65625 11.222656 27.285156 11.21875 28.914062 C 11.21875 29.945312 11.21875 30.972656 11.21875 32.003906 C 11.21875 32.492188 11.21875 32.984375 11.214844 33.488281 C 11.011719 35.726562 11.011719 35.726562 11.894531 37.597656 C 13.117188 37.65625 14.347656 37.675781 15.574219 37.675781 C 16.320312 37.675781 17.066406 37.675781 17.835938 37.679688 C 18.421875 37.675781 18.421875 37.675781 19.019531 37.675781 C 20.214844 37.671875 21.40625 37.675781 22.601562 37.679688 C 23.347656 37.675781 24.09375 37.675781 24.863281 37.675781 C 25.554688 37.675781 26.246094 37.675781 26.957031 37.675781 C 28.496094 37.777344 28.496094 37.777344 29.140625 37 C 29.191406 35.9375 29.203125 34.871094 29.195312 33.808594 C 29.195312 32.84375 29.195312 32.84375 29.191406 31.855469 C 29.1875 31.179688 29.179688 30.5 29.175781 29.800781 C 29.171875 29.121094 29.171875 28.441406 29.167969 27.738281 C 29.160156 26.050781 29.148438 24.363281 29.140625 22.675781 C 25.019531 22.382812 25.019531 22.382812 20.8125 22.082031 C 20.617188 19.324219 20.421875 16.566406 20.21875 13.726562 C 18.859375 13.714844 17.496094 13.703125 16.09375 13.6875 C 14.945312 13.679688 14.945312 13.679688 13.773438 13.667969 C 11.976562 13.507812 11.976562 13.507812 11.296875 14.324219 Z M 11.296875 14.324219 "/>
<path style=" stroke:none;fill-rule:nonzero;fill:rgb(4.705882%,51.372549%,98.823529%);fill-opacity:1;" d="M 43.410156 46.546875 C 45.285156 47.324219 46.15625 48.070312 47.460938 49.605469 C 48.636719 52.460938 48.695312 55.148438 47.695312 58.082031 C 47.125 59.300781 46.605469 60.394531 45.789062 61.46875 C 42.847656 62.453125 39.933594 62.46875 36.871094 62.066406 C 34.550781 60.5 34.550781 60.5 33.894531 58.484375 C 33.441406 55.4375 33.128906 52.277344 34.527344 49.449219 C 37.101562 46.285156 39.589844 46.183594 43.410156 46.546875 Z M 43.410156 46.546875 "/>
<path style=" stroke:none;fill-rule:nonzero;fill:rgb(1.568627%,49.803922%,98.823529%);fill-opacity:1;" d="M 66.007812 47.144531 C 68.125 47.089844 68.125 47.089844 70.28125 47.035156 C 70.941406 47.007812 70.941406 47.007812 71.613281 46.984375 C 74.230469 46.949219 75.832031 47.320312 77.902344 48.933594 C 79.289062 51.71875 78.8125 55.464844 78.496094 58.484375 C 77.429688 60.601562 75.96875 61.320312 73.738281 62.066406 C 71.160156 62.144531 68.589844 62.089844 66.007812 62.066406 C 66.007812 57.140625 66.007812 52.21875 66.007812 47.144531 Z M 66.007812 47.144531 "/>
<path style=" stroke:none;fill-rule:nonzero;fill:rgb(14.509804%,14.509804%,14.509804%);fill-opacity:1;" d="M 185.6875 15.738281 C 187.953125 17.914062 189.019531 19.28125 189.292969 22.453125 C 189.425781 23.117188 189.5625 23.78125 189.703125 24.46875 C 191.394531 25.515625 191.394531 25.515625 193.269531 26.257812 C 194.566406 27.386719 194.972656 28.179688 195.261719 29.867188 C 195.421875 32.386719 195.277344 34.097656 193.679688 36.105469 C 191.261719 38.359375 189.507812 38.261719 186.320312 38.230469 C 185.265625 38.222656 185.265625 38.222656 184.195312 38.214844 C 183.65625 38.207031 183.117188 38.199219 182.566406 38.195312 C 182.566406 37.601562 182.566406 37.011719 182.566406 36.402344 C 183.09375 36.386719 183.625 36.371094 184.171875 36.355469 C 184.867188 36.324219 185.566406 36.289062 186.28125 36.253906 C 186.972656 36.226562 187.660156 36.199219 188.371094 36.171875 C 190.605469 35.75 191.339844 35.234375 192.675781 33.417969 C 192.925781 31.355469 193.089844 29.9375 192.003906 28.121094 C 190.503906 27.21875 189.039062 27.113281 187.324219 26.855469 C 187.285156 26.378906 187.246094 25.902344 187.207031 25.414062 C 186.738281 20.921875 186.738281 20.921875 184.050781 17.492188 C 180.875 15.203125 178.097656 15.136719 174.238281 15.515625 C 171.582031 16.679688 170.628906 17.820312 169.519531 20.402344 C 168.960938 21.671875 168.960938 21.671875 168.292969 22.675781 C 166.25 23.085938 166.25 23.085938 164.128906 23.273438 C 162.417969 24.691406 162.417969 24.691406 161.15625 26.257812 C 160.960938 26.453125 160.765625 26.652344 160.5625 26.855469 C 160.300781 28.675781 160.277344 30.40625 160.5625 32.226562 C 162.242188 34.355469 163.558594 35.664062 166.273438 35.996094 C 166.867188 36.042969 167.457031 36.09375 168.070312 36.140625 C 168.667969 36.191406 169.261719 36.242188 169.878906 36.292969 C 170.335938 36.328125 170.792969 36.367188 171.265625 36.402344 C 171.265625 36.992188 171.265625 37.585938 171.265625 38.195312 C 163.703125 38.808594 163.703125 38.808594 161.046875 36.550781 C 158.898438 34.390625 158.007812 32.371094 157.960938 29.316406 C 158.046875 26.410156 158.480469 24.816406 160.5625 22.675781 C 162.046875 21.890625 163.558594 21.195312 165.085938 20.5 C 166.925781 19.457031 167.710938 18.269531 168.800781 16.496094 C 170.128906 14.582031 172.070312 13.511719 174.203125 12.679688 C 178.722656 12.132812 182.074219 12.902344 185.6875 15.738281 Z M 185.6875 15.738281 "/>
<path style=" stroke:none;fill-rule:nonzero;fill:rgb(30.980392%,70.980392%,94.509804%);fill-opacity:1;" d="M 161.75 46.546875 C 163.125 46.546875 164.5 46.546875 165.914062 46.546875 C 167.058594 47.890625 167.761719 48.902344 168.554688 50.425781 C 168.761719 50.796875 168.96875 51.167969 169.183594 51.546875 C 169.695312 52.460938 170.183594 53.382812 170.671875 54.304688 C 170.867188 51.746094 171.0625 49.1875 171.265625 46.546875 C 172.445312 46.546875 173.621094 46.546875 174.835938 46.546875 C 174.835938 51.667969 174.835938 56.789062 174.835938 62.066406 C 173.65625 62.066406 172.480469 62.066406 171.265625 62.066406 C 170.097656 60.757812 169.261719 59.65625 168.367188 58.183594 C 168.128906 57.816406 167.890625 57.445312 167.640625 57.0625 C 167.054688 56.152344 166.484375 55.230469 165.914062 54.304688 C 165.71875 56.867188 165.523438 59.425781 165.320312 62.066406 C 164.140625 62.066406 162.964844 62.066406 161.75 62.066406 C 161.75 56.945312 161.75 51.824219 161.75 46.546875 Z M 161.75 46.546875 "/>
<path style=" stroke:none;fill-rule:nonzero;fill:rgb(27.45098%,69.411765%,94.509804%);fill-opacity:1;" d="M 128.449219 47.144531 C 129.859375 47.082031 131.269531 47.023438 132.722656 46.957031 C 133.164062 46.929688 133.601562 46.90625 134.054688 46.875 C 136.367188 46.828125 137.292969 47.085938 139.125 48.535156 C 140.34375 50.128906 140.34375 50.128906 140.675781 51.917969 C 140.273438 54.078125 139.449219 55.109375 137.964844 56.695312 C 138.136719 57.027344 138.308594 57.359375 138.484375 57.699219 C 139.179688 59.132812 139.769531 60.582031 140.34375 62.066406 C 138.449219 62.324219 138.449219 62.324219 136.179688 62.066406 C 135.199219 61.070312 134.535156 60.0625 133.828125 58.859375 C 133.257812 57.785156 133.257812 57.785156 132.019531 57.289062 C 132.019531 58.867188 132.019531 60.441406 132.019531 62.066406 C 130.839844 62.066406 129.664062 62.066406 128.449219 62.066406 C 128.449219 57.140625 128.449219 52.21875 128.449219 47.144531 Z M 128.449219 47.144531 "/>
<path style=" stroke:none;fill-rule:nonzero;fill:rgb(27.058824%,69.019608%,94.117647%);fill-opacity:1;" d="M 97.527344 47.144531 C 98.703125 47.144531 99.882812 47.144531 101.09375 47.144531 C 101.09375 47.933594 101.09375 48.71875 101.09375 49.53125 C 102.859375 49.53125 104.628906 49.53125 106.445312 49.53125 C 106.445312 48.746094 106.445312 47.957031 106.445312 47.144531 C 107.625 47.144531 108.800781 47.144531 110.015625 47.144531 C 110.015625 52.070312 110.015625 56.992188 110.015625 62.066406 C 108.835938 62.066406 107.660156 62.066406 106.445312 62.066406 C 106.445312 60.09375 106.445312 58.125 106.445312 56.097656 C 104.679688 56.097656 102.914062 56.097656 101.09375 56.097656 C 101.09375 58.066406 101.09375 60.035156 101.09375 62.066406 C 99.917969 62.066406 98.738281 62.066406 97.527344 62.066406 C 97.527344 57.730469 97.527344 53.398438 97.527344 48.933594 C 96.9375 48.738281 96.347656 48.542969 95.742188 48.339844 C 96.332031 48.339844 96.921875 48.339844 97.527344 48.339844 C 97.527344 47.945312 97.527344 47.550781 97.527344 47.144531 Z M 97.527344 47.144531 "/>
<path style=" stroke:none;fill-rule:nonzero;fill:rgb(29.803922%,69.803922%,93.72549%);fill-opacity:1;" d="M 117.152344 47.144531 C 119.15625 47.070312 119.15625 47.070312 121.3125 47.144531 C 122.648438 48.484375 122.832031 49.1875 123.320312 50.988281 C 124.144531 53.894531 125.140625 56.703125 126.207031 59.527344 C 126.664062 60.871094 126.664062 60.871094 126.664062 62.066406 C 125.292969 62.066406 123.917969 62.066406 122.503906 62.066406 C 122.308594 61.472656 122.109375 60.882812 121.910156 60.273438 C 119.945312 60.078125 117.984375 59.878906 115.960938 59.675781 C 115.960938 60.464844 115.960938 61.253906 115.960938 62.066406 C 114.585938 62.066406 113.214844 62.066406 111.796875 62.066406 C 113.011719 57.816406 114.417969 53.667969 115.960938 49.53125 C 115.175781 49.335938 114.390625 49.136719 113.582031 48.933594 C 114.5625 48.933594 115.546875 48.933594 116.554688 48.933594 C 116.753906 48.34375 116.949219 47.753906 117.152344 47.144531 Z M 117.152344 47.144531 "/>
<path style=" stroke:none;fill-rule:nonzero;fill:rgb(30.588235%,70.588235%,94.509804%);fill-opacity:1;" d="M 185.722656 46.4375 C 186.675781 46.460938 186.675781 46.460938 187.648438 46.484375 C 188.128906 46.507812 188.609375 46.527344 189.105469 46.546875 C 189.105469 47.730469 189.105469 48.910156 189.105469 50.128906 C 188.640625 50.164062 188.175781 50.203125 187.695312 50.238281 C 186.792969 50.3125 186.792969 50.3125 185.871094 50.390625 C 185.273438 50.4375 184.671875 50.488281 184.054688 50.535156 C 182.601562 50.566406 182.601562 50.566406 181.96875 51.324219 C 181.925781 52.527344 181.921875 53.734375 181.933594 54.941406 C 181.9375 55.601562 181.945312 56.257812 181.949219 56.9375 C 181.957031 57.449219 181.964844 57.957031 181.96875 58.484375 C 183.34375 58.484375 184.71875 58.484375 186.132812 58.484375 C 186.132812 57.894531 186.132812 57.300781 186.132812 56.695312 C 185.347656 56.695312 184.5625 56.695312 183.753906 56.695312 C 183.753906 55.707031 183.753906 54.722656 183.753906 53.710938 C 185.71875 53.710938 187.679688 53.710938 189.703125 53.710938 C 189.71875 54.988281 189.730469 56.269531 189.738281 57.550781 C 189.746094 58.265625 189.753906 58.976562 189.757812 59.710938 C 189.703125 61.46875 189.703125 61.46875 189.105469 62.066406 C 182.058594 62.710938 182.058594 62.710938 179.589844 61.460938 C 177.628906 59.507812 177.121094 57.394531 177.0625 54.714844 C 177.101562 52.175781 177.53125 50.472656 178.996094 48.339844 C 181.289062 46.625 182.890625 46.34375 185.722656 46.4375 Z M 185.722656 46.4375 "/>
<path style=" stroke:none;fill-rule:nonzero;fill:rgb(2.352941%,50.196078%,98.823529%);fill-opacity:1;" d="M 50.546875 47.144531 C 51.726562 47.144531 52.902344 47.144531 54.117188 47.144531 C 54.3125 50.691406 54.507812 54.234375 54.710938 57.886719 C 56.082031 57.886719 57.457031 57.886719 58.871094 57.886719 C 59.167969 52.570312 59.167969 52.570312 59.46875 47.144531 C 60.644531 47.144531 61.824219 47.144531 63.035156 47.144531 C 63.082031 48.972656 63.117188 50.800781 63.148438 52.628906 C 63.160156 53.144531 63.175781 53.660156 63.191406 54.191406 C 63.226562 57.105469 63.1875 59.121094 61.25 61.46875 C 59.742188 62.222656 58.585938 62.230469 56.902344 62.289062 C 56.339844 62.316406 55.777344 62.347656 55.199219 62.375 C 52.742188 61.917969 51.96875 61.140625 50.546875 59.082031 C 50.195312 57.015625 50.265625 55.015625 50.363281 52.925781 C 50.375 52.371094 50.386719 51.816406 50.402344 51.242188 C 50.4375 49.875 50.484375 48.511719 50.546875 47.144531 Z M 50.546875 47.144531 "/>
<path style=" stroke:none;fill-rule:nonzero;fill:rgb(27.45098%,69.411765%,94.509804%);fill-opacity:1;" d="M 142.722656 47.144531 C 146.058594 47.144531 149.394531 47.144531 152.832031 47.144531 C 152.832031 48.128906 152.832031 49.113281 152.832031 50.128906 C 150.671875 50.128906 148.515625 50.128906 146.289062 50.128906 C 146.289062 51.113281 146.289062 52.097656 146.289062 53.113281 C 148.054688 53.113281 149.824219 53.113281 151.640625 53.113281 C 151.640625 54.097656 151.640625 55.082031 151.640625 56.097656 C 149.875 56.097656 148.109375 56.097656 146.289062 56.097656 C 146.289062 56.882812 146.289062 57.671875 146.289062 58.484375 C 148.644531 58.484375 151 58.484375 153.425781 58.484375 C 153.425781 59.664062 153.425781 60.847656 153.425781 62.066406 C 149.894531 62.066406 146.359375 62.066406 142.722656 62.066406 C 142.722656 57.140625 142.722656 52.21875 142.722656 47.144531 Z M 142.722656 47.144531 "/>
<path style=" stroke:none;fill-rule:nonzero;fill:rgb(29.019608%,69.803922%,94.117647%);fill-opacity:1;" d="M 90.390625 46.472656 C 91.015625 46.472656 91.015625 46.472656 91.652344 46.46875 C 92.769531 46.546875 92.769531 46.546875 93.957031 47.144531 C 93.957031 48.128906 93.957031 49.113281 93.957031 50.128906 C 91.308594 50.425781 91.308594 50.425781 88.605469 50.726562 C 88.605469 51.121094 88.605469 51.511719 88.605469 51.917969 C 88.980469 52.035156 89.351562 52.148438 89.734375 52.269531 C 90.222656 52.425781 90.707031 52.578125 91.207031 52.738281 C 91.691406 52.890625 92.175781 53.042969 92.671875 53.203125 C 93.957031 53.710938 93.957031 53.710938 95.148438 54.902344 C 95.550781 59.097656 95.550781 59.097656 94.214844 61.015625 C 92.230469 62.457031 90.878906 62.304688 88.457031 62.214844 C 87.707031 62.191406 86.957031 62.171875 86.179688 62.148438 C 85.320312 62.105469 85.320312 62.105469 84.445312 62.066406 C 84.445312 60.882812 84.445312 59.703125 84.445312 58.484375 C 86.796875 58.484375 89.152344 58.484375 91.578125 58.484375 C 91.382812 57.894531 91.1875 57.300781 90.984375 56.695312 C 89.777344 56.125 89.777344 56.125 88.347656 55.761719 C 85.75 55.019531 85.75 55.019531 84.445312 53.710938 C 84.179688 51.308594 84.039062 50.046875 85.558594 48.113281 C 87.292969 46.785156 88.242188 46.464844 90.390625 46.472656 Z M 90.390625 46.472656 "/>
<path style=" stroke:none;fill-rule:nonzero;fill:rgb(4.705882%,51.372549%,98.823529%);fill-opacity:1;" d="M 17.355469 46.511719 C 17.894531 46.515625 18.429688 46.523438 18.980469 46.527344 C 19.390625 46.535156 19.796875 46.542969 20.21875 46.546875 C 20.21875 47.730469 20.21875 48.910156 20.21875 50.128906 C 19.585938 50.171875 19.585938 50.171875 18.9375 50.21875 C 18.390625 50.261719 17.847656 50.308594 17.28125 50.351562 C 16.738281 50.394531 16.191406 50.4375 15.632812 50.480469 C 14.957031 50.601562 14.957031 50.601562 14.273438 50.726562 C 13.605469 52.066406 13.597656 52.824219 13.601562 54.304688 C 13.601562 54.726562 13.601562 55.144531 13.597656 55.574219 C 13.609375 56.75 13.609375 56.75 14.273438 57.886719 C 16.429688 57.886719 18.589844 57.886719 20.8125 57.886719 C 20.8125 59.070312 20.8125 60.25 20.8125 61.46875 C 18.074219 62.382812 15.351562 62.382812 12.488281 62.066406 C 10.605469 60.761719 10.234375 60.054688 9.515625 57.886719 C 8.828125 51.070312 8.828125 51.070312 10.890625 48.523438 C 13.082031 46.632812 14.5625 46.476562 17.355469 46.511719 Z M 17.355469 46.511719 "/>
<path style=" stroke:none;fill-rule:nonzero;fill:rgb(2.352941%,50.196078%,98.823529%);fill-opacity:1;" d="M 22.597656 47.144531 C 23.773438 47.144531 24.953125 47.144531 26.164062 47.144531 C 26.164062 50.886719 26.164062 54.628906 26.164062 58.484375 C 28.128906 58.484375 30.089844 58.484375 32.113281 58.484375 C 32.113281 59.664062 32.113281 60.847656 32.113281 62.066406 C 28.972656 62.066406 25.832031 62.066406 22.597656 62.066406 C 22.597656 57.140625 22.597656 52.21875 22.597656 47.144531 Z M 22.597656 47.144531 "/>
<path style=" stroke:none;fill-rule:nonzero;fill:rgb(34.509804%,72.54902%,94.901961%);fill-opacity:1;" d="M 155.210938 46.546875 C 156.582031 46.546875 157.957031 46.546875 159.371094 46.546875 C 159.371094 51.667969 159.371094 56.789062 159.371094 62.066406 C 158 62.066406 156.625 62.066406 155.210938 62.066406 C 155.210938 56.945312 155.210938 51.824219 155.210938 46.546875 Z M 155.210938 46.546875 "/>
<path style=" stroke:none;fill-rule:nonzero;fill:rgb(9.411765%,9.411765%,9.411765%);fill-opacity:1;" d="M 168.292969 19.695312 C 168.292969 20.679688 168.292969 21.664062 168.292969 22.675781 C 167.355469 22.734375 167.355469 22.734375 166.398438 22.789062 C 163.742188 23.355469 162.886719 24.21875 161.15625 26.257812 C 160.960938 26.453125 160.765625 26.652344 160.5625 26.855469 C 160.300781 28.675781 160.277344 30.40625 160.5625 32.226562 C 162.242188 34.355469 163.558594 35.664062 166.273438 35.996094 C 167.160156 36.066406 167.160156 36.066406 168.070312 36.140625 C 168.667969 36.191406 169.261719 36.242188 169.878906 36.292969 C 170.335938 36.328125 170.792969 36.367188 171.265625 36.402344 C 171.265625 36.992188 171.265625 37.585938 171.265625 38.195312 C 163.703125 38.808594 163.703125 38.808594 161.046875 36.550781 C 158.898438 34.390625 158.007812 32.371094 157.960938 29.316406 C 158.023438 26.457031 158.613281 24.84375 160.5625 22.675781 C 162.691406 21.0625 165.5625 19.695312 168.292969 19.695312 Z M 168.292969 19.695312 "/>
<path style=" stroke:none;fill-rule:nonzero;fill:rgb(16.470588%,16.470588%,16.470588%);fill-opacity:1;" d="M 176.914062 23.273438 C 178.648438 23.96875 179.5625 24.855469 180.78125 26.257812 C 180.585938 26.847656 180.386719 27.441406 180.1875 28.046875 C 179.597656 27.65625 179.007812 27.261719 178.402344 26.855469 C 178.207031 31.777344 178.011719 36.703125 177.808594 41.773438 C 177.023438 41.773438 176.238281 41.773438 175.429688 41.773438 C 175.429688 36.851562 175.429688 31.925781 175.429688 26.855469 C 174.25 27.445312 174.25 27.445312 173.050781 28.046875 C 173.050781 25.660156 173.050781 25.660156 174.054688 24.28125 C 175.429688 23.273438 175.429688 23.273438 176.914062 23.273438 Z M 176.914062 23.273438 "/>
<path style=" stroke:none;fill-rule:nonzero;fill:rgb(96.078431%,98.039216%,99.607843%);fill-opacity:1;" d="M 40.734375 49.980469 C 42.816406 50.128906 42.816406 50.128906 44.007812 51.324219 C 44.144531 52.855469 44.144531 52.855469 44.117188 54.640625 C 44.113281 55.53125 44.113281 55.53125 44.105469 56.433594 C 44.007812 57.886719 44.007812 57.886719 43.410156 58.484375 C 40 58.648438 40 58.648438 38.652344 58.484375 C 37.464844 57.289062 37.464844 57.289062 37.304688 55.910156 C 37.308594 55.382812 37.3125 54.851562 37.316406 54.304688 C 37.3125 53.777344 37.308594 53.246094 37.304688 52.703125 C 37.582031 50.296875 38.421875 50.144531 40.734375 49.980469 Z M 40.734375 49.980469 "/>
<path style=" stroke:none;fill-rule:nonzero;fill:rgb(92.156863%,96.078431%,99.607843%);fill-opacity:1;" d="M 69.578125 50.128906 C 73.144531 50.128906 73.144531 50.128906 74.261719 50.726562 C 75.3125 52.605469 75.253906 54.585938 74.929688 56.695312 C 74.339844 57.578125 74.339844 57.578125 73.738281 58.484375 C 72.367188 58.484375 70.992188 58.484375 69.578125 58.484375 C 69.578125 55.726562 69.578125 52.96875 69.578125 50.128906 Z M 69.578125 50.128906 "/>
<path style=" stroke:none;fill-rule:nonzero;fill:rgb(4.313725%,4.313725%,4.313725%);fill-opacity:1;" d="M 193.863281 30.433594 C 194.257812 30.433594 194.648438 30.433594 195.054688 30.433594 C 195.257812 32.167969 195.363281 33.496094 194.453125 35.03125 C 193.152344 36.644531 192.277344 37.53125 190.296875 38.195312 C 188.972656 38.234375 187.644531 38.242188 186.320312 38.230469 C 185.265625 38.222656 185.265625 38.222656 184.195312 38.214844 C 183.65625 38.207031 183.117188 38.199219 182.566406 38.195312 C 182.566406 37.601562 182.566406 37.011719 182.566406 36.402344 C 183.351562 36.390625 183.351562 36.390625 184.152344 36.378906 C 188.460938 36.277344 188.460938 36.277344 192.230469 34.425781 C 193.140625 33.023438 193.679688 32.085938 193.863281 30.433594 Z M 193.863281 30.433594 "/>
<path style=" stroke:none;fill-rule:nonzero;fill:rgb(15.294118%,15.294118%,15.294118%);fill-opacity:1;" d="M 171.859375 13.726562 C 173.125 13.949219 173.125 13.949219 174.238281 14.324219 C 173.785156 14.765625 173.332031 15.207031 172.863281 15.664062 C 171.078125 17.5 169.707031 19.355469 168.292969 21.484375 C 168.097656 21.089844 167.902344 20.695312 167.699219 20.289062 C 166.71875 20.488281 165.734375 20.683594 164.726562 20.886719 C 167.105469 18.5 169.480469 16.113281 171.859375 13.726562 Z M 171.859375 13.726562 "/>
<path style=" stroke:none;fill-rule:nonzero;fill:rgb(73.72549%,85.882353%,93.333333%);fill-opacity:1;" d="M 132.613281 45.355469 C 132.417969 45.550781 132.21875 45.75 132.019531 45.953125 C 133.785156 46.246094 133.785156 46.246094 135.585938 46.546875 C 135.585938 46.746094 135.585938 46.941406 135.585938 47.144531 C 133.230469 47.144531 130.875 47.144531 128.449219 47.144531 C 128.449219 52.070312 128.449219 56.992188 128.449219 62.066406 C 128.253906 62.066406 128.058594 62.066406 127.855469 62.066406 C 127.855469 57.140625 127.855469 52.21875 127.855469 47.144531 C 127.460938 46.949219 127.070312 46.75 126.664062 46.546875 C 127.429688 46.230469 128.199219 45.921875 128.96875 45.617188 C 129.398438 45.441406 129.824219 45.269531 130.265625 45.089844 C 131.421875 44.757812 131.421875 44.757812 132.613281 45.355469 Z M 132.613281 45.355469 "/>
<path style=" stroke:none;fill-rule:nonzero;fill:rgb(92.156863%,96.862745%,99.215686%);fill-opacity:1;" d="M 132.019531 50.128906 C 133.207031 50.105469 134.398438 50.105469 135.585938 50.128906 C 136.179688 50.726562 136.179688 50.726562 136.253906 52.21875 C 136.179688 53.710938 136.179688 53.710938 135.585938 54.304688 C 134.398438 54.332031 133.207031 54.332031 132.019531 54.304688 C 132.019531 52.929688 132.019531 51.550781 132.019531 50.128906 Z M 132.019531 50.128906 "/>
<path style=" stroke:none;fill-rule:nonzero;fill:rgb(97.647059%,98.431373%,98.823529%);fill-opacity:1;" d="M 101.09375 49.53125 C 102.859375 49.53125 104.628906 49.53125 106.445312 49.53125 C 106.445312 50.515625 106.445312 51.5 106.445312 52.515625 C 104.679688 52.515625 102.914062 52.515625 101.09375 52.515625 C 101.09375 51.53125 101.09375 50.546875 101.09375 49.53125 Z M 101.09375 49.53125 "/>
<path style=" stroke:none;fill-rule:nonzero;fill:rgb(7.45098%,7.45098%,7.45098%);fill-opacity:1;" d="M 162.941406 35.804688 C 167.0625 36.101562 167.0625 36.101562 171.265625 36.402344 C 171.265625 36.992188 171.265625 37.585938 171.265625 38.195312 C 168.714844 38.195312 166.164062 38.195312 163.535156 38.195312 C 163.339844 37.40625 163.144531 36.617188 162.941406 35.804688 Z M 162.941406 35.804688 "/>
<path style=" stroke:none;fill-rule:nonzero;fill:rgb(14.901961%,14.901961%,14.901961%);fill-opacity:1;" d="M 193.269531 26.257812 C 194.6875 27.78125 195.054688 28.3125 195.054688 30.433594 C 194.660156 30.433594 194.269531 30.433594 193.863281 30.433594 C 193.667969 31.222656 193.472656 32.011719 193.269531 32.824219 C 193.097656 32.15625 192.925781 31.492188 192.75 30.808594 C 192.261719 28.644531 192.261719 28.644531 190.890625 27.453125 C 189.707031 27.214844 188.519531 27.011719 187.324219 26.855469 C 187.324219 26.65625 187.324219 26.460938 187.324219 26.257812 C 191.40625 25.417969 191.40625 25.417969 193.269531 26.257812 Z M 193.269531 26.257812 "/>
<path style=" stroke:none;fill-rule:nonzero;fill:rgb(7.45098%,7.45098%,7.45098%);fill-opacity:1;" d="M 193.863281 30.433594 C 194.257812 30.433594 194.648438 30.433594 195.054688 30.433594 C 195.261719 32.1875 195.359375 33.503906 194.433594 35.050781 C 193.640625 36.03125 193.640625 36.03125 192.078125 37.597656 C 191.6875 37.597656 191.292969 37.597656 190.890625 37.597656 C 190.890625 35.210938 190.890625 35.210938 192.042969 34.015625 C 192.449219 33.621094 192.851562 33.226562 193.269531 32.824219 C 193.738281 31.546875 193.738281 31.546875 193.863281 30.433594 Z M 193.863281 30.433594 "/>
<path style=" stroke:none;fill-rule:nonzero;fill:rgb(89.411765%,95.294118%,98.823529%);fill-opacity:1;" d="M 118.933594 51.324219 C 120.578125 52.972656 120.46875 54.429688 120.71875 56.695312 C 119.738281 56.695312 118.757812 56.695312 117.746094 56.695312 C 118.265625 51.992188 118.265625 51.992188 118.933594 51.324219 Z M 118.933594 51.324219 "/>
<path style=" stroke:none;fill-rule:nonzero;fill:rgb(3.921569%,3.921569%,3.921569%);fill-opacity:1;" d="M 187.324219 20.886719 C 187.714844 20.886719 188.109375 20.886719 188.511719 20.886719 C 188.671875 21.453125 188.832031 22.019531 188.996094 22.601562 C 189.550781 24.617188 189.550781 24.617188 191.484375 25.660156 C 190.890625 26.257812 190.890625 26.257812 189.070312 26.296875 C 188.492188 26.28125 187.917969 26.269531 187.324219 26.257812 C 187.324219 24.484375 187.324219 22.714844 187.324219 20.886719 Z M 187.324219 20.886719 "/>
<path style=" stroke:none;fill-rule:nonzero;fill:rgb(7.843137%,7.843137%,7.843137%);fill-opacity:1;" d="M 175.429688 23.273438 C 176.019531 23.472656 176.605469 23.667969 177.214844 23.871094 C 176.625 24.265625 176.035156 24.660156 175.429688 25.066406 C 175.625 25.457031 175.820312 25.851562 176.023438 26.257812 C 174.550781 27.144531 174.550781 27.144531 173.050781 28.046875 C 173.050781 25.660156 173.050781 25.660156 174.238281 24.320312 C 174.828125 23.800781 174.828125 23.800781 175.429688 23.273438 Z M 175.429688 23.273438 "/>
<path style=" stroke:none;fill-rule:nonzero;fill:rgb(89.803922%,89.803922%,89.803922%);fill-opacity:1;" d="M 23.191406 16.113281 C 24.394531 17.09375 25.582031 18.085938 26.761719 19.097656 C 26.761719 19.292969 26.761719 19.492188 26.761719 19.695312 C 25.582031 19.695312 24.40625 19.695312 23.191406 19.695312 C 23.191406 18.511719 23.191406 17.332031 23.191406 16.113281 Z M 23.191406 16.113281 "/>
<path style=" stroke:none;fill-rule:nonzero;fill:rgb(74.117647%,83.137255%,88.235294%);fill-opacity:1;" d="M 131.421875 44.757812 C 131.816406 44.953125 132.207031 45.152344 132.613281 45.355469 C 132.417969 45.550781 132.21875 45.75 132.019531 45.953125 C 133.785156 46.246094 133.785156 46.246094 135.585938 46.546875 C 135.585938 46.746094 135.585938 46.941406 135.585938 47.144531 C 133.625 47.144531 131.660156 47.144531 129.640625 47.144531 C 129.640625 46.554688 129.640625 45.964844 129.640625 45.355469 C 130.226562 45.15625 130.816406 44.960938 131.421875 44.757812 Z M 131.421875 44.757812 "/>
</g>
</svg>
