<?xml version="1.0" encoding="UTF-8"?>
<svg xmlns="http://www.w3.org/2000/svg" xmlns:xlink="http://www.w3.org/1999/xlink" width="202px" height="40px" viewBox="0 0 202 40" version="1.1">
<g id="surface1">
<path style=" stroke:none;fill-rule:nonzero;fill:rgb(98.823529%,98.823529%,99.215686%);fill-opacity:1;" d="M 0 0 C 66.660156 0 133.320312 0 202 0 C 202 13.199219 202 26.398438 202 40 C 135.339844 40 68.679688 40 0 40 C 0 26.800781 0 13.601562 0 0 Z M 0 0 "/>
<path style=" stroke:none;fill-rule:nonzero;fill:rgb(3.137255%,3.529412%,3.529412%);fill-opacity:1;" d="M 131.480469 14.839844 C 139.761719 14.839844 148.046875 14.839844 156.578125 14.839844 C 156.578125 16.480469 156.535156 17.078125 155.445312 18.480469 C 155.207031 18.792969 154.972656 19.101562 154.726562 19.417969 C 154.347656 19.898438 154.347656 19.898438 153.964844 20.382812 C 153.71875 20.703125 153.472656 21.027344 153.21875 21.359375 C 152.261719 22.589844 151.382812 23.722656 150.007812 24.839844 C 148.148438 24.964844 146.953125 25.046875 145.398438 24.441406 C 144.628906 23.871094 144.628906 23.871094 144.582031 23.140625 C 144.660156 22.882812 144.734375 22.625 144.8125 22.359375 C 144.886719 22.097656 144.957031 21.835938 145.03125 21.570312 C 145.09375 21.371094 145.160156 21.171875 145.226562 20.96875 C 144.703125 21.128906 144.179688 21.289062 143.640625 21.453125 C 127.265625 26.378906 127.265625 26.378906 117.734375 25.804688 C 117.4375 26.125 117.4375 26.125 117.136719 26.453125 C 115.640625 26.585938 115.640625 26.585938 113.8125 26.652344 C 113.207031 26.675781 112.601562 26.703125 111.980469 26.726562 C 111.511719 26.742188 111.042969 26.757812 110.5625 26.773438 C 110.5625 26.347656 110.5625 25.921875 110.5625 25.484375 C 109.378906 25.484375 108.195312 25.484375 106.976562 25.484375 C 106.976562 25.910156 106.976562 26.335938 106.976562 26.773438 C 105.203125 26.773438 103.425781 26.773438 101.597656 26.773438 C 101.597656 26.347656 101.597656 25.921875 101.597656 25.484375 C 100.414062 25.484375 99.230469 25.484375 98.011719 25.484375 C 98.011719 25.695312 98.011719 25.910156 98.011719 26.128906 C 96.828125 26.128906 95.644531 26.128906 94.425781 26.128906 C 94.425781 25.917969 94.425781 25.703125 94.425781 25.484375 C 94.027344 25.492188 93.625 25.496094 93.214844 25.503906 C 82.722656 25.382812 73.871094 21.679688 66.335938 18.066406 C 66.535156 17.640625 66.730469 17.214844 66.933594 16.773438 C 69.652344 16.960938 71.730469 17.585938 74.070312 18.304688 C 78.339844 19.582031 82.617188 20.460938 87.253906 21.289062 C 88.101562 21.46875 88.949219 21.648438 89.792969 21.835938 C 94.894531 22.796875 99.84375 23.019531 105.222656 23.003906 C 105.875 23.003906 106.527344 23 107.203125 23 C 112.671875 22.960938 117.804688 22.640625 123.113281 21.933594 C 123.71875 21.855469 124.324219 21.777344 124.949219 21.699219 C 130.730469 20.800781 135.878906 19.046875 141.042969 17.417969 C 139.351562 17.113281 137.660156 16.808594 135.949219 16.535156 C 135.273438 16.421875 135.273438 16.421875 134.578125 16.308594 C 134.121094 16.238281 133.660156 16.164062 133.1875 16.089844 C 132.820312 15.996094 132.453125 15.902344 132.078125 15.804688 C 131.78125 15.328125 131.78125 15.328125 131.480469 14.839844 Z M 131.480469 14.839844 "/>
<path style=" stroke:none;fill-rule:nonzero;fill:rgb(3.529412%,3.529412%,3.529412%);fill-opacity:1;" d="M 83.519531 6.996094 C 84.625 6.996094 84.625 6.996094 85.753906 7 C 91.058594 7.035156 95.875 7.285156 101 8.066406 C 101.765625 8.15625 101.765625 8.15625 102.546875 8.253906 C 109.859375 9.238281 116.277344 11.578125 121.917969 14.195312 C 122.710938 14.519531 123.503906 14.84375 124.308594 15.160156 C 124.109375 15.695312 123.914062 16.226562 123.710938 16.773438 C 121.207031 16.472656 119.066406 15.871094 116.800781 15.242188 C 115.933594 15.007812 115.066406 14.769531 114.199219 14.535156 C 112.804688 14.15625 111.414062 13.773438 110.023438 13.386719 C 98.042969 10.203125 81.535156 9.464844 68.835938 11.671875 C 59.777344 13.308594 59.777344 13.308594 51.992188 16.128906 C 52.632812 16.210938 53.273438 16.292969 53.933594 16.378906 C 54.769531 16.488281 55.605469 16.601562 56.4375 16.714844 C 56.863281 16.765625 57.285156 16.820312 57.71875 16.875 C 58.816406 17.027344 59.890625 17.21875 60.957031 17.417969 C 61.15625 17.738281 61.351562 18.058594 61.554688 18.386719 C 53.46875 18.386719 45.382812 18.386719 37.054688 18.386719 C 37.726562 15.84375 37.726562 15.84375 38.714844 14.53125 C 38.921875 14.25 39.128906 13.972656 39.34375 13.683594 C 39.5625 13.398438 39.78125 13.117188 40.003906 12.824219 C 40.21875 12.53125 40.433594 12.242188 40.65625 11.945312 C 41.53125 10.785156 42.335938 9.757812 43.628906 8.710938 C 47.660156 8.953125 47.660156 8.953125 49.007812 9.675781 C 49.082031 10.644531 49.082031 10.644531 49.007812 11.613281 C 49.007812 11.824219 49.007812 12.039062 49.007812 12.257812 C 49.628906 12.066406 50.25 11.875 50.890625 11.679688 C 61.347656 8.542969 71.492188 6.964844 83.519531 6.996094 Z M 83.519531 6.996094 "/>
<path style=" stroke:none;fill-rule:nonzero;fill:rgb(98.039216%,98.039216%,98.039216%);fill-opacity:1;" d="M 13.839844 7.386719 C 16 7.398438 18.160156 7.410156 20.320312 7.417969 C 20.515625 8.910156 20.714844 10.398438 20.917969 11.933594 C 25.058594 12.09375 25.058594 12.09375 29.285156 12.257812 C 29.300781 13.542969 29.3125 14.824219 29.320312 16.109375 C 29.328125 16.476562 29.332031 16.84375 29.335938 17.21875 C 29.339844 17.742188 29.339844 17.742188 29.34375 18.273438 C 29.347656 18.757812 29.347656 18.757812 29.351562 19.253906 C 29.285156 20 29.285156 20 28.6875 20.324219 C 27.453125 20.355469 26.222656 20.363281 24.988281 20.367188 C 24.238281 20.367188 23.488281 20.367188 22.714844 20.367188 C 22.320312 20.367188 21.929688 20.367188 21.523438 20.363281 C 20.324219 20.363281 19.125 20.363281 17.925781 20.367188 C 17.175781 20.367188 16.421875 20.367188 15.652344 20.367188 C 14.957031 20.363281 14.261719 20.363281 13.546875 20.363281 C 11.953125 20.324219 11.953125 20.324219 11.355469 20 C 11.292969 19.097656 11.273438 18.203125 11.277344 17.296875 C 11.273438 17.027344 11.273438 16.757812 11.273438 16.476562 C 11.273438 15.902344 11.273438 15.328125 11.277344 14.757812 C 11.28125 13.875 11.277344 12.992188 11.273438 12.113281 C 11.273438 11.554688 11.273438 11 11.277344 10.445312 C 11.273438 10.179688 11.273438 9.914062 11.273438 9.640625 C 11.289062 7.429688 11.289062 7.429688 13.839844 7.386719 Z M 13.839844 7.386719 "/>
<path style=" stroke:none;fill-rule:nonzero;fill:rgb(5.882353%,5.882353%,5.882353%);fill-opacity:1;" d="M 16.921875 5.566406 C 17.492188 5.566406 18.0625 5.566406 18.652344 5.566406 C 21.054688 5.613281 22.796875 5.644531 24.894531 6.308594 C 25.886719 6.957031 25.886719 6.957031 26.597656 7.65625 C 27.578125 8.457031 28.476562 8.777344 29.953125 9.300781 C 31.667969 10.089844 32.214844 10.503906 32.707031 11.707031 C 32.824219 12.765625 32.863281 13.804688 32.796875 14.863281 C 32.757812 15.527344 32.761719 16.1875 32.769531 16.851562 C 32.679688 20.023438 32.679688 20.023438 31.007812 21.253906 C 28.902344 22.085938 27.769531 22.144531 25.175781 22.148438 C 24.390625 22.152344 23.605469 22.152344 22.792969 22.15625 C 22.386719 22.152344 21.980469 22.148438 21.5625 22.144531 C 20.324219 22.136719 19.085938 22.144531 17.84375 22.15625 C 16.667969 22.152344 16.667969 22.152344 15.464844 22.148438 C 14.390625 22.148438 14.390625 22.148438 13.292969 22.144531 C 10.707031 21.867188 9.867188 21.488281 8.367188 20.324219 C 7.953125 19.316406 7.960938 18.34375 7.992188 17.316406 C 7.988281 17.027344 7.988281 16.742188 7.988281 16.445312 C 7.988281 15.835938 7.996094 15.230469 8.011719 14.621094 C 8.03125 13.691406 8.023438 12.761719 8.011719 11.832031 C 8.015625 11.242188 8.019531 10.652344 8.027344 10.058594 C 8.027344 9.78125 8.023438 9.503906 8.019531 9.21875 C 8.0625 7.996094 8.101562 7.304688 9.40625 6.28125 C 11.78125 5.449219 14.160156 5.558594 16.921875 5.566406 Z M 11.355469 7.742188 C 11.292969 8.644531 11.273438 9.539062 11.277344 10.445312 C 11.273438 10.714844 11.273438 10.984375 11.273438 11.265625 C 11.273438 11.839844 11.273438 12.410156 11.277344 12.984375 C 11.28125 13.867188 11.277344 14.75 11.273438 15.628906 C 11.273438 16.1875 11.273438 16.742188 11.277344 17.296875 C 11.273438 17.5625 11.273438 17.828125 11.273438 18.101562 C 11.066406 19.3125 11.066406 19.3125 11.953125 20.324219 C 13.183594 20.355469 14.417969 20.363281 15.652344 20.367188 C 16.402344 20.367188 17.152344 20.367188 17.925781 20.367188 C 18.511719 20.367188 18.511719 20.367188 19.113281 20.363281 C 20.316406 20.363281 21.515625 20.363281 22.714844 20.367188 C 23.464844 20.367188 24.214844 20.367188 24.988281 20.367188 C 25.683594 20.363281 26.375 20.363281 27.09375 20.363281 C 28.640625 20.421875 28.640625 20.421875 29.285156 20 C 29.335938 19.425781 29.347656 18.851562 29.34375 18.273438 C 29.339844 17.753906 29.339844 17.753906 29.335938 17.21875 C 29.332031 16.851562 29.328125 16.488281 29.320312 16.109375 C 29.320312 15.742188 29.316406 15.375 29.3125 14.996094 C 29.304688 14.082031 29.296875 13.171875 29.285156 12.257812 C 25.140625 12.097656 25.140625 12.097656 20.917969 11.933594 C 20.71875 10.445312 20.523438 8.953125 20.320312 7.417969 C 18.953125 7.414062 17.582031 7.40625 16.171875 7.398438 C 15.019531 7.394531 15.019531 7.394531 13.839844 7.386719 C 12.035156 7.300781 12.035156 7.300781 11.355469 7.742188 Z M 11.355469 7.742188 "/>
<path style=" stroke:none;fill-rule:nonzero;fill:rgb(4.705882%,51.372549%,98.823529%);fill-opacity:1;" d="M 43.628906 25.160156 C 45.507812 25.582031 46.386719 25.984375 47.699219 26.816406 C 48.878906 28.359375 48.9375 29.808594 47.933594 31.394531 C 47.359375 32.054688 46.835938 32.644531 46.019531 33.226562 C 43.0625 33.757812 40.132812 33.769531 37.054688 33.546875 C 34.726562 32.703125 34.726562 32.703125 34.066406 31.613281 C 33.609375 29.964844 33.292969 28.257812 34.699219 26.730469 C 37.285156 25.019531 39.789062 24.964844 43.628906 25.160156 Z M 43.628906 25.160156 "/>
<path style=" stroke:none;fill-rule:nonzero;fill:rgb(1.568627%,49.803922%,98.823529%);fill-opacity:1;" d="M 66.335938 25.484375 C 68.464844 25.453125 68.464844 25.453125 70.632812 25.421875 C 71.292969 25.410156 71.292969 25.410156 71.96875 25.398438 C 74.601562 25.378906 76.207031 25.578125 78.289062 26.453125 C 79.683594 27.957031 79.207031 29.980469 78.886719 31.613281 C 77.8125 32.757812 76.347656 33.144531 74.105469 33.546875 C 71.515625 33.59375 68.929688 33.5625 66.335938 33.546875 C 66.335938 30.886719 66.335938 28.226562 66.335938 25.484375 Z M 66.335938 25.484375 "/>
<path style=" stroke:none;fill-rule:nonzero;fill:rgb(14.509804%,14.509804%,14.509804%);fill-opacity:1;" d="M 186.609375 8.507812 C 188.890625 9.683594 189.960938 10.421875 190.234375 12.136719 C 190.371094 12.496094 190.503906 12.855469 190.644531 13.226562 C 192.347656 13.792969 192.347656 13.792969 194.230469 14.195312 C 195.53125 14.804688 195.941406 15.230469 196.234375 16.144531 C 196.394531 17.507812 196.25 18.429688 194.640625 19.515625 C 192.214844 20.734375 190.449219 20.683594 187.246094 20.664062 C 186.1875 20.660156 186.1875 20.660156 185.109375 20.65625 C 184.570312 20.652344 184.03125 20.648438 183.472656 20.644531 C 183.472656 20.324219 183.472656 20.007812 183.472656 19.675781 C 184.007812 19.667969 184.539062 19.660156 185.089844 19.652344 C 185.789062 19.632812 186.488281 19.617188 187.207031 19.597656 C 187.902344 19.582031 188.59375 19.566406 189.308594 19.550781 C 191.550781 19.324219 192.292969 19.046875 193.632812 18.066406 C 193.886719 16.949219 194.050781 16.183594 192.960938 15.203125 C 191.449219 14.710938 189.980469 14.65625 188.253906 14.515625 C 188.214844 14.257812 188.179688 14.003906 188.140625 13.738281 C 187.667969 11.308594 187.667969 11.308594 184.96875 9.457031 C 181.773438 8.21875 178.984375 8.183594 175.105469 8.386719 C 172.4375 9.015625 171.476562 9.632812 170.363281 11.027344 C 169.800781 11.714844 169.800781 11.714844 169.128906 12.257812 C 167.074219 12.480469 167.074219 12.480469 164.945312 12.582031 C 163.226562 13.347656 163.226562 13.347656 161.957031 14.195312 C 161.761719 14.300781 161.5625 14.40625 161.359375 14.515625 C 161.097656 15.5 161.074219 16.4375 161.359375 17.417969 C 163.046875 18.570312 164.371094 19.277344 167.097656 19.457031 C 167.695312 19.484375 168.292969 19.507812 168.90625 19.535156 C 169.503906 19.5625 170.105469 19.589844 170.722656 19.617188 C 171.183594 19.636719 171.644531 19.65625 172.117188 19.675781 C 172.117188 19.996094 172.117188 20.316406 172.117188 20.644531 C 164.515625 20.976562 164.515625 20.976562 161.847656 19.757812 C 159.6875 18.589844 158.792969 17.496094 158.746094 15.847656 C 158.832031 14.277344 159.265625 13.414062 161.359375 12.257812 C 162.851562 11.832031 164.371094 11.457031 165.90625 11.082031 C 167.757812 10.515625 168.546875 9.875 169.640625 8.917969 C 170.976562 7.882812 172.925781 7.300781 175.070312 6.855469 C 179.609375 6.558594 182.980469 6.972656 186.609375 8.507812 Z M 186.609375 8.507812 "/>
<path style=" stroke:none;fill-rule:nonzero;fill:rgb(30.980392%,70.980392%,94.509804%);fill-opacity:1;" d="M 162.554688 25.160156 C 163.9375 25.160156 165.316406 25.160156 166.738281 25.160156 C 167.890625 25.886719 168.59375 26.433594 169.390625 27.257812 C 169.601562 27.457031 169.808594 27.65625 170.027344 27.863281 C 170.539062 28.355469 171.03125 28.855469 171.519531 29.355469 C 171.71875 27.972656 171.914062 26.585938 172.117188 25.160156 C 173.300781 25.160156 174.484375 25.160156 175.703125 25.160156 C 175.703125 27.929688 175.703125 30.695312 175.703125 33.546875 C 174.519531 33.546875 173.335938 33.546875 172.117188 33.546875 C 170.945312 32.84375 170.105469 32.246094 169.203125 31.453125 C 168.964844 31.25 168.722656 31.050781 168.476562 30.84375 C 167.886719 30.351562 167.3125 29.855469 166.738281 29.355469 C 166.542969 30.738281 166.34375 32.121094 166.140625 33.546875 C 164.957031 33.546875 163.773438 33.546875 162.554688 33.546875 C 162.554688 30.78125 162.554688 28.011719 162.554688 25.160156 Z M 162.554688 25.160156 "/>
<path style=" stroke:none;fill-rule:nonzero;fill:rgb(27.45098%,69.411765%,94.509804%);fill-opacity:1;" d="M 129.089844 25.484375 C 130.507812 25.449219 131.921875 25.417969 133.382812 25.382812 C 133.824219 25.367188 134.265625 25.355469 134.71875 25.339844 C 137.046875 25.3125 137.976562 25.453125 139.816406 26.234375 C 141.042969 27.097656 141.042969 27.097656 141.378906 28.066406 C 140.972656 29.230469 140.144531 29.789062 138.652344 30.644531 C 138.824219 30.824219 138.996094 31.003906 139.171875 31.191406 C 139.871094 31.960938 140.464844 32.746094 141.042969 33.546875 C 139.136719 33.691406 139.136719 33.691406 136.859375 33.546875 C 135.871094 33.011719 135.207031 32.464844 134.492188 31.816406 C 133.921875 31.234375 133.921875 31.234375 132.675781 30.96875 C 132.675781 31.820312 132.675781 32.671875 132.675781 33.546875 C 131.492188 33.546875 130.308594 33.546875 129.089844 33.546875 C 129.089844 30.886719 129.089844 28.226562 129.089844 25.484375 Z M 129.089844 25.484375 "/>
<path style=" stroke:none;fill-rule:nonzero;fill:rgb(27.058824%,69.019608%,94.117647%);fill-opacity:1;" d="M 98.011719 25.484375 C 99.195312 25.484375 100.378906 25.484375 101.597656 25.484375 C 101.597656 25.910156 101.597656 26.335938 101.597656 26.773438 C 103.371094 26.773438 105.148438 26.773438 106.976562 26.773438 C 106.976562 26.347656 106.976562 25.921875 106.976562 25.484375 C 108.160156 25.484375 109.34375 25.484375 110.5625 25.484375 C 110.5625 28.144531 110.5625 30.804688 110.5625 33.546875 C 109.378906 33.546875 108.195312 33.546875 106.976562 33.546875 C 106.976562 32.484375 106.976562 31.417969 106.976562 30.324219 C 105.203125 30.324219 103.425781 30.324219 101.597656 30.324219 C 101.597656 31.386719 101.597656 32.453125 101.597656 33.546875 C 100.414062 33.546875 99.230469 33.546875 98.011719 33.546875 C 98.011719 31.207031 98.011719 28.863281 98.011719 26.453125 C 97.421875 26.34375 96.828125 26.238281 96.21875 26.128906 C 96.8125 26.128906 97.402344 26.128906 98.011719 26.128906 C 98.011719 25.917969 98.011719 25.703125 98.011719 25.484375 Z M 98.011719 25.484375 "/>
<path style=" stroke:none;fill-rule:nonzero;fill:rgb(29.803922%,69.803922%,93.72549%);fill-opacity:1;" d="M 117.734375 25.484375 C 119.75 25.445312 119.75 25.445312 121.917969 25.484375 C 123.261719 26.207031 123.445312 26.585938 123.933594 27.558594 C 124.761719 29.132812 125.761719 30.652344 126.835938 32.175781 C 127.296875 32.902344 127.296875 32.902344 127.296875 33.546875 C 125.914062 33.546875 124.535156 33.546875 123.113281 33.546875 C 122.914062 33.230469 122.71875 32.910156 122.515625 32.582031 C 120.542969 32.472656 118.570312 32.367188 116.539062 32.257812 C 116.539062 32.683594 116.539062 33.109375 116.539062 33.546875 C 115.15625 33.546875 113.777344 33.546875 112.355469 33.546875 C 113.574219 31.253906 114.988281 29.011719 116.539062 26.773438 C 115.75 26.667969 114.960938 26.5625 114.148438 26.453125 C 115.132812 26.453125 116.121094 26.453125 117.136719 26.453125 C 117.332031 26.132812 117.53125 25.8125 117.734375 25.484375 Z M 117.734375 25.484375 "/>
<path style=" stroke:none;fill-rule:nonzero;fill:rgb(30.588235%,70.588235%,94.509804%);fill-opacity:1;" d="M 186.648438 25.101562 C 187.605469 25.113281 187.605469 25.113281 188.582031 25.128906 C 189.066406 25.136719 189.550781 25.148438 190.046875 25.160156 C 190.046875 25.800781 190.046875 26.4375 190.046875 27.097656 C 189.578125 27.117188 189.113281 27.136719 188.628906 27.15625 C 187.722656 27.195312 187.722656 27.195312 186.796875 27.238281 C 186.195312 27.265625 185.589844 27.289062 184.96875 27.316406 C 183.511719 27.332031 183.511719 27.332031 182.875 27.742188 C 182.832031 28.394531 182.824219 29.046875 182.839844 29.699219 C 182.84375 30.054688 182.847656 30.410156 182.855469 30.777344 C 182.863281 31.054688 182.867188 31.328125 182.875 31.613281 C 184.257812 31.613281 185.636719 31.613281 187.058594 31.613281 C 187.058594 31.292969 187.058594 30.972656 187.058594 30.644531 C 186.269531 30.644531 185.480469 30.644531 184.667969 30.644531 C 184.667969 30.113281 184.667969 29.582031 184.667969 29.03125 C 186.640625 29.03125 188.613281 29.03125 190.644531 29.03125 C 190.660156 29.722656 190.671875 30.417969 190.683594 31.109375 C 190.6875 31.496094 190.695312 31.878906 190.703125 32.277344 C 190.644531 33.226562 190.644531 33.226562 190.046875 33.546875 C 182.964844 33.898438 182.964844 33.898438 180.484375 33.222656 C 178.511719 32.164062 178 31.023438 177.945312 29.578125 C 177.984375 28.203125 178.414062 27.28125 179.886719 26.128906 C 182.191406 25.203125 183.800781 25.050781 186.648438 25.101562 Z M 186.648438 25.101562 "/>
<path style=" stroke:none;fill-rule:nonzero;fill:rgb(2.352941%,50.196078%,98.823529%);fill-opacity:1;" d="M 50.796875 25.484375 C 51.980469 25.484375 53.164062 25.484375 54.382812 25.484375 C 54.582031 27.398438 54.777344 29.316406 54.980469 31.289062 C 56.363281 31.289062 57.742188 31.289062 59.164062 31.289062 C 59.460938 28.417969 59.460938 28.417969 59.761719 25.484375 C 60.945312 25.484375 62.128906 25.484375 63.347656 25.484375 C 63.398438 26.472656 63.433594 27.460938 63.460938 28.449219 C 63.476562 28.726562 63.492188 29.003906 63.507812 29.292969 C 63.539062 30.867188 63.5 31.957031 61.554688 33.226562 C 60.039062 33.636719 58.878906 33.636719 57.1875 33.667969 C 56.621094 33.683594 56.054688 33.699219 55.476562 33.71875 C 53.003906 33.46875 52.226562 33.046875 50.796875 31.933594 C 50.445312 30.820312 50.515625 29.738281 50.613281 28.609375 C 50.625 28.308594 50.640625 28.007812 50.652344 27.699219 C 50.6875 26.960938 50.738281 26.222656 50.796875 25.484375 Z M 50.796875 25.484375 "/>
<path style=" stroke:none;fill-rule:nonzero;fill:rgb(27.45098%,69.411765%,94.509804%);fill-opacity:1;" d="M 143.433594 25.484375 C 146.785156 25.484375 150.136719 25.484375 153.589844 25.484375 C 153.589844 26.015625 153.589844 26.546875 153.589844 27.097656 C 151.421875 27.097656 149.253906 27.097656 147.019531 27.097656 C 147.019531 27.628906 147.019531 28.160156 147.019531 28.710938 C 148.792969 28.710938 150.566406 28.710938 152.394531 28.710938 C 152.394531 29.242188 152.394531 29.773438 152.394531 30.324219 C 150.621094 30.324219 148.847656 30.324219 147.019531 30.324219 C 147.019531 30.75 147.019531 31.175781 147.019531 31.613281 C 149.382812 31.613281 151.75 31.613281 154.1875 31.613281 C 154.1875 32.25 154.1875 32.890625 154.1875 33.546875 C 150.640625 33.546875 147.089844 33.546875 143.433594 33.546875 C 143.433594 30.886719 143.433594 28.226562 143.433594 25.484375 Z M 143.433594 25.484375 "/>
<path style=" stroke:none;fill-rule:nonzero;fill:rgb(29.019608%,69.803922%,94.117647%);fill-opacity:1;" d="M 90.839844 25.121094 C 91.46875 25.121094 91.46875 25.121094 92.109375 25.117188 C 93.230469 25.160156 93.230469 25.160156 94.425781 25.484375 C 94.425781 26.015625 94.425781 26.546875 94.425781 27.097656 C 91.761719 27.257812 91.761719 27.257812 89.046875 27.417969 C 89.046875 27.632812 89.046875 27.84375 89.046875 28.066406 C 89.421875 28.125 89.796875 28.1875 90.183594 28.253906 C 90.671875 28.335938 91.160156 28.421875 91.660156 28.507812 C 92.148438 28.589844 92.632812 28.671875 93.132812 28.757812 C 94.425781 29.03125 94.425781 29.03125 95.621094 29.675781 C 96.027344 31.945312 96.027344 31.945312 94.683594 32.980469 C 92.691406 33.757812 91.328125 33.675781 88.898438 33.628906 C 88.144531 33.617188 87.386719 33.605469 86.609375 33.59375 C 85.746094 33.570312 85.746094 33.570312 84.863281 33.546875 C 84.863281 32.910156 84.863281 32.269531 84.863281 31.613281 C 87.230469 31.613281 89.597656 31.613281 92.035156 31.613281 C 91.839844 31.292969 91.640625 30.972656 91.4375 30.644531 C 90.222656 30.339844 90.222656 30.339844 88.785156 30.140625 C 86.175781 29.742188 86.175781 29.742188 84.863281 29.03125 C 84.597656 27.734375 84.457031 27.050781 85.984375 26.007812 C 87.726562 25.289062 88.683594 25.117188 90.839844 25.121094 Z M 90.839844 25.121094 "/>
<path style=" stroke:none;fill-rule:nonzero;fill:rgb(4.705882%,51.372549%,98.823529%);fill-opacity:1;" d="M 17.445312 25.140625 C 17.980469 25.144531 18.519531 25.148438 19.074219 25.148438 C 19.484375 25.152344 19.894531 25.15625 20.320312 25.160156 C 20.320312 25.800781 20.320312 26.4375 20.320312 27.097656 C 19.683594 27.121094 19.683594 27.121094 19.035156 27.144531 C 18.484375 27.167969 17.933594 27.191406 17.367188 27.21875 C 16.820312 27.238281 16.273438 27.261719 15.707031 27.285156 C 15.03125 27.351562 15.03125 27.351562 14.34375 27.417969 C 13.671875 28.144531 13.664062 28.554688 13.671875 29.355469 C 13.667969 29.582031 13.667969 29.808594 13.667969 30.039062 C 13.675781 30.675781 13.675781 30.675781 14.34375 31.289062 C 16.511719 31.289062 18.683594 31.289062 20.917969 31.289062 C 20.917969 31.929688 20.917969 32.566406 20.917969 33.226562 C 18.164062 33.722656 15.425781 33.71875 12.550781 33.546875 C 10.65625 32.84375 10.285156 32.460938 9.5625 31.289062 C 8.871094 27.605469 8.871094 27.605469 10.945312 26.230469 C 13.144531 25.207031 14.636719 25.121094 17.445312 25.140625 Z M 17.445312 25.140625 "/>
<path style=" stroke:none;fill-rule:nonzero;fill:rgb(2.352941%,50.196078%,98.823529%);fill-opacity:1;" d="M 22.710938 25.484375 C 23.894531 25.484375 25.078125 25.484375 26.296875 25.484375 C 26.296875 27.507812 26.296875 29.527344 26.296875 31.613281 C 28.269531 31.613281 30.242188 31.613281 32.273438 31.613281 C 32.273438 32.25 32.273438 32.890625 32.273438 33.546875 C 29.117188 33.546875 25.960938 33.546875 22.710938 33.546875 C 22.710938 30.886719 22.710938 28.226562 22.710938 25.484375 Z M 22.710938 25.484375 "/>
<path style=" stroke:none;fill-rule:nonzero;fill:rgb(34.509804%,72.54902%,94.901961%);fill-opacity:1;" d="M 155.980469 25.160156 C 157.363281 25.160156 158.742188 25.160156 160.164062 25.160156 C 160.164062 27.929688 160.164062 30.695312 160.164062 33.546875 C 158.785156 33.546875 157.40625 33.546875 155.980469 33.546875 C 155.980469 30.78125 155.980469 28.011719 155.980469 25.160156 Z M 155.980469 25.160156 "/>
<path style=" stroke:none;fill-rule:nonzero;fill:rgb(9.411765%,9.411765%,9.411765%);fill-opacity:1;" d="M 169.128906 10.644531 C 169.128906 11.175781 169.128906 11.710938 169.128906 12.257812 C 168.1875 12.289062 168.1875 12.289062 167.226562 12.320312 C 164.558594 12.625 163.695312 13.089844 161.957031 14.195312 C 161.761719 14.300781 161.5625 14.40625 161.359375 14.515625 C 161.097656 15.5 161.074219 16.4375 161.359375 17.417969 C 163.046875 18.570312 164.371094 19.277344 167.097656 19.457031 C 167.992188 19.496094 167.992188 19.496094 168.90625 19.535156 C 169.503906 19.5625 170.105469 19.589844 170.722656 19.617188 C 171.183594 19.636719 171.644531 19.65625 172.117188 19.675781 C 172.117188 19.996094 172.117188 20.316406 172.117188 20.644531 C 164.515625 20.976562 164.515625 20.976562 161.847656 19.757812 C 159.6875 18.589844 158.792969 17.496094 158.746094 15.847656 C 158.808594 14.300781 159.402344 13.429688 161.359375 12.257812 C 163.5 11.382812 166.386719 10.644531 169.128906 10.644531 Z M 169.128906 10.644531 "/>
<path style=" stroke:none;fill-rule:nonzero;fill:rgb(16.470588%,16.470588%,16.470588%);fill-opacity:1;" d="M 177.796875 12.582031 C 179.539062 12.957031 180.457031 13.433594 181.679688 14.195312 C 181.484375 14.511719 181.285156 14.832031 181.082031 15.160156 C 180.492188 14.949219 179.898438 14.734375 179.289062 14.515625 C 179.09375 17.175781 178.894531 19.839844 178.691406 22.582031 C 177.902344 22.582031 177.113281 22.582031 176.300781 22.582031 C 176.300781 19.917969 176.300781 17.257812 176.300781 14.515625 C 175.117188 14.835938 175.117188 14.835938 173.910156 15.160156 C 173.910156 13.871094 173.910156 13.871094 174.917969 13.125 C 176.300781 12.582031 176.300781 12.582031 177.796875 12.582031 Z M 177.796875 12.582031 "/>
<path style=" stroke:none;fill-rule:nonzero;fill:rgb(96.078431%,98.039216%,99.607843%);fill-opacity:1;" d="M 40.9375 27.015625 C 43.03125 27.097656 43.03125 27.097656 44.226562 27.742188 C 44.363281 28.570312 44.363281 28.570312 44.335938 29.535156 C 44.332031 30.015625 44.332031 30.015625 44.324219 30.503906 C 44.226562 31.289062 44.226562 31.289062 43.628906 31.613281 C 40.199219 31.699219 40.199219 31.699219 38.847656 31.613281 C 37.652344 30.96875 37.652344 30.96875 37.492188 30.222656 C 37.496094 29.9375 37.5 29.648438 37.5 29.355469 C 37.5 29.070312 37.496094 28.78125 37.492188 28.488281 C 37.769531 27.1875 38.613281 27.105469 40.9375 27.015625 Z M 40.9375 27.015625 "/>
<path style=" stroke:none;fill-rule:nonzero;fill:rgb(92.156863%,96.078431%,99.607843%);fill-opacity:1;" d="M 69.921875 27.097656 C 73.507812 27.097656 73.507812 27.097656 74.628906 27.417969 C 75.6875 28.433594 75.628906 29.507812 75.300781 30.644531 C 74.710938 31.125 74.710938 31.125 74.105469 31.613281 C 72.726562 31.613281 71.34375 31.613281 69.921875 31.613281 C 69.921875 30.121094 69.921875 28.632812 69.921875 27.097656 Z M 69.921875 27.097656 "/>
<path style=" stroke:none;fill-rule:nonzero;fill:rgb(4.313725%,4.313725%,4.313725%);fill-opacity:1;" d="M 194.828125 16.453125 C 195.222656 16.453125 195.617188 16.453125 196.023438 16.453125 C 196.230469 17.386719 196.332031 18.105469 195.421875 18.933594 C 194.113281 19.808594 193.234375 20.285156 191.242188 20.644531 C 189.910156 20.667969 188.578125 20.671875 187.246094 20.664062 C 186.1875 20.660156 186.1875 20.660156 185.109375 20.65625 C 184.570312 20.652344 184.03125 20.648438 183.472656 20.644531 C 183.472656 20.324219 183.472656 20.007812 183.472656 19.675781 C 184.261719 19.671875 184.261719 19.671875 185.066406 19.664062 C 189.398438 19.609375 189.398438 19.609375 193.183594 18.609375 C 194.101562 17.851562 194.644531 17.34375 194.828125 16.453125 Z M 194.828125 16.453125 "/>
<path style=" stroke:none;fill-rule:nonzero;fill:rgb(15.294118%,15.294118%,15.294118%);fill-opacity:1;" d="M 172.714844 7.417969 C 173.984375 7.539062 173.984375 7.539062 175.105469 7.742188 C 174.652344 7.980469 174.195312 8.222656 173.722656 8.46875 C 171.929688 9.460938 170.550781 10.460938 169.128906 11.613281 C 168.933594 11.398438 168.734375 11.1875 168.53125 10.96875 C 167.546875 11.074219 166.558594 11.179688 165.542969 11.289062 C 167.933594 10 170.324219 8.710938 172.714844 7.417969 Z M 172.714844 7.417969 "/>
<path style=" stroke:none;fill-rule:nonzero;fill:rgb(73.72549%,85.882353%,93.333333%);fill-opacity:1;" d="M 133.273438 24.515625 C 133.074219 24.621094 132.878906 24.730469 132.675781 24.839844 C 134.449219 25 134.449219 25 136.261719 25.160156 C 136.261719 25.269531 136.261719 25.375 136.261719 25.484375 C 133.894531 25.484375 131.527344 25.484375 129.089844 25.484375 C 129.089844 28.144531 129.089844 30.804688 129.089844 33.546875 C 128.890625 33.546875 128.695312 33.546875 128.492188 33.546875 C 128.492188 30.886719 128.492188 28.226562 128.492188 25.484375 C 128.097656 25.378906 127.703125 25.269531 127.296875 25.160156 C 128.066406 24.992188 128.839844 24.824219 129.613281 24.65625 C 130.042969 24.5625 130.472656 24.46875 130.914062 24.375 C 132.078125 24.195312 132.078125 24.195312 133.273438 24.515625 Z M 133.273438 24.515625 "/>
<path style=" stroke:none;fill-rule:nonzero;fill:rgb(92.156863%,96.862745%,99.215686%);fill-opacity:1;" d="M 132.675781 27.097656 C 133.871094 27.082031 135.066406 27.082031 136.261719 27.097656 C 136.859375 27.417969 136.859375 27.417969 136.933594 28.226562 C 136.859375 29.03125 136.859375 29.03125 136.261719 29.355469 C 135.066406 29.367188 133.871094 29.367188 132.675781 29.355469 C 132.675781 28.609375 132.675781 27.863281 132.675781 27.097656 Z M 132.675781 27.097656 "/>
<path style=" stroke:none;fill-rule:nonzero;fill:rgb(97.647059%,98.431373%,98.823529%);fill-opacity:1;" d="M 101.597656 26.773438 C 103.371094 26.773438 105.148438 26.773438 106.976562 26.773438 C 106.976562 27.304688 106.976562 27.839844 106.976562 28.386719 C 105.203125 28.386719 103.425781 28.386719 101.597656 28.386719 C 101.597656 27.855469 101.597656 27.324219 101.597656 26.773438 Z M 101.597656 26.773438 "/>
<path style=" stroke:none;fill-rule:nonzero;fill:rgb(7.45098%,7.45098%,7.45098%);fill-opacity:1;" d="M 163.75 19.355469 C 167.894531 19.515625 167.894531 19.515625 172.117188 19.675781 C 172.117188 19.996094 172.117188 20.316406 172.117188 20.644531 C 169.554688 20.644531 166.992188 20.644531 164.347656 20.644531 C 164.152344 20.21875 163.953125 19.792969 163.75 19.355469 Z M 163.75 19.355469 "/>
<path style=" stroke:none;fill-rule:nonzero;fill:rgb(14.901961%,14.901961%,14.901961%);fill-opacity:1;" d="M 194.230469 14.195312 C 195.65625 15.019531 196.023438 15.304688 196.023438 16.453125 C 195.628906 16.453125 195.234375 16.453125 194.828125 16.453125 C 194.632812 16.878906 194.433594 17.304688 194.230469 17.742188 C 194.058594 17.382812 193.886719 17.023438 193.707031 16.652344 C 193.21875 15.484375 193.21875 15.484375 191.839844 14.839844 C 190.652344 14.710938 189.457031 14.601562 188.253906 14.515625 C 188.253906 14.410156 188.253906 14.304688 188.253906 14.195312 C 192.359375 13.742188 192.359375 13.742188 194.230469 14.195312 Z M 194.230469 14.195312 "/>
<path style=" stroke:none;fill-rule:nonzero;fill:rgb(7.45098%,7.45098%,7.45098%);fill-opacity:1;" d="M 194.828125 16.453125 C 195.222656 16.453125 195.617188 16.453125 196.023438 16.453125 C 196.234375 17.398438 196.332031 18.109375 195.398438 18.945312 C 194.605469 19.476562 194.605469 19.476562 193.035156 20.324219 C 192.640625 20.324219 192.246094 20.324219 191.839844 20.324219 C 191.839844 19.03125 191.839844 19.03125 193 18.386719 C 193.40625 18.175781 193.8125 17.960938 194.230469 17.742188 C 194.703125 17.050781 194.703125 17.050781 194.828125 16.453125 Z M 194.828125 16.453125 "/>
<path style=" stroke:none;fill-rule:nonzero;fill:rgb(89.411765%,95.294118%,98.823529%);fill-opacity:1;" d="M 119.527344 27.742188 C 121.175781 28.632812 121.066406 29.421875 121.320312 30.644531 C 120.332031 30.644531 119.347656 30.644531 118.332031 30.644531 C 118.855469 28.105469 118.855469 28.105469 119.527344 27.742188 Z M 119.527344 27.742188 "/>
<path style=" stroke:none;fill-rule:nonzero;fill:rgb(3.921569%,3.921569%,3.921569%);fill-opacity:1;" d="M 188.253906 11.289062 C 188.648438 11.289062 189.042969 11.289062 189.449219 11.289062 C 189.609375 11.597656 189.769531 11.902344 189.933594 12.21875 C 190.496094 13.308594 190.496094 13.308594 192.4375 13.871094 C 191.839844 14.195312 191.839844 14.195312 190.011719 14.214844 C 189.429688 14.207031 188.851562 14.199219 188.253906 14.195312 C 188.253906 13.234375 188.253906 12.277344 188.253906 11.289062 Z M 188.253906 11.289062 "/>
<path style=" stroke:none;fill-rule:nonzero;fill:rgb(7.843137%,7.843137%,7.843137%);fill-opacity:1;" d="M 176.300781 12.582031 C 176.894531 12.6875 177.484375 12.792969 178.09375 12.902344 C 177.503906 13.117188 176.910156 13.328125 176.300781 13.546875 C 176.5 13.761719 176.695312 13.972656 176.898438 14.195312 C 175.421875 14.671875 175.421875 14.671875 173.910156 15.160156 C 173.910156 13.871094 173.910156 13.871094 175.105469 13.144531 C 175.699219 12.867188 175.699219 12.867188 176.300781 12.582031 Z M 176.300781 12.582031 "/>
<path style=" stroke:none;fill-rule:nonzero;fill:rgb(89.803922%,89.803922%,89.803922%);fill-opacity:1;" d="M 23.308594 8.710938 C 24.515625 9.238281 25.710938 9.777344 26.894531 10.324219 C 26.894531 10.429688 26.894531 10.535156 26.894531 10.644531 C 25.710938 10.644531 24.527344 10.644531 23.308594 10.644531 C 23.308594 10.007812 23.308594 9.367188 23.308594 8.710938 Z M 23.308594 8.710938 "/>
<path style=" stroke:none;fill-rule:nonzero;fill:rgb(74.117647%,83.137255%,88.235294%);fill-opacity:1;" d="M 132.078125 24.195312 C 132.472656 24.300781 132.867188 24.40625 133.273438 24.515625 C 133.074219 24.621094 132.878906 24.730469 132.675781 24.839844 C 134.449219 25 134.449219 25 136.261719 25.160156 C 136.261719 25.269531 136.261719 25.375 136.261719 25.484375 C 134.289062 25.484375 132.316406 25.484375 130.285156 25.484375 C 130.285156 25.164062 130.285156 24.84375 130.285156 24.515625 C 130.875 24.410156 131.46875 24.304688 132.078125 24.195312 Z M 132.078125 24.195312 "/>
</g>
</svg>
